<svg width="15" height="15" viewBox="0 0 15 15" fill="none" xmlns="http://www.w3.org/2000/svg">
<path d="M2.46094 14.5601C1.66992 14.5601 1.07178 14.3574 0.666504 13.9521C0.26123 13.5518 0.0585938 12.9609 0.0585938 12.1797V3.26611C0.0585938 2.47998 0.26123 1.88672 0.666504 1.48633C1.07178 1.08594 1.66992 0.885742 2.46094 0.885742H12.5391C13.335 0.885742 13.9331 1.08594 14.3335 1.48633C14.7388 1.88672 14.9414 2.47998 14.9414 3.26611V12.1797C14.9414 12.9609 14.7388 13.5518 14.3335 13.9521C13.9331 14.3574 13.335 14.5601 12.5391 14.5601H2.46094ZM2.44629 13.1172H12.5464C12.854 13.1172 13.0884 13.0391 13.2495 12.8828C13.4155 12.7217 13.4985 12.4824 13.4985 12.165V5.39746C13.4985 5.08008 13.4155 4.84082 13.2495 4.67969C13.0884 4.51855 12.854 4.43799 12.5464 4.43799H2.44629C2.13867 4.43799 1.9043 4.51855 1.74316 4.67969C1.58203 4.84082 1.50146 5.08008 1.50146 5.39746V12.165C1.50146 12.4824 1.58203 12.7217 1.74316 12.8828C1.9043 13.0391 2.13867 13.1172 2.44629 13.1172ZM3.70605 7.08203C3.56934 7.08203 3.45459 7.03809 3.36182 6.9502C3.27393 6.85742 3.22998 6.74268 3.22998 6.60596C3.22998 6.479 3.27393 6.37158 3.36182 6.28369C3.45459 6.1958 3.56934 6.15186 3.70605 6.15186H11.3086C11.4453 6.15186 11.5576 6.1958 11.6455 6.28369C11.7334 6.37158 11.7773 6.479 11.7773 6.60596C11.7773 6.74268 11.7334 6.85742 11.6455 6.9502C11.5576 7.03809 11.4453 7.08203 11.3086 7.08203H3.70605ZM3.70605 9.24268C3.56934 9.24268 3.45459 9.19873 3.36182 9.11084C3.27393 9.02295 3.22998 8.91553 3.22998 8.78857C3.22998 8.65674 3.27393 8.54688 3.36182 8.45898C3.45459 8.36621 3.56934 8.31982 3.70605 8.31982H11.3086C11.4453 8.31982 11.5576 8.36621 11.6455 8.45898C11.7334 8.54688 11.7773 8.65674 11.7773 8.78857C11.7773 8.91553 11.7334 9.02295 11.6455 9.11084C11.5576 9.19873 11.4453 9.24268 11.3086 9.24268H3.70605ZM3.70605 11.4106C3.56934 11.4106 3.45459 11.3667 3.36182 11.2788C3.27393 11.1909 3.22998 11.0835 3.22998 10.9565C3.22998 10.8247 3.27393 10.7148 3.36182 10.627C3.45459 10.5342 3.56934 10.4878 3.70605 10.4878H8.50342C8.64014 10.4878 8.75244 10.5342 8.84033 10.627C8.92822 10.7148 8.97217 10.8247 8.97217 10.9565C8.97217 11.0835 8.92822 11.1909 8.84033 11.2788C8.75244 11.3667 8.64014 11.4106 8.50342 11.4106H3.70605Z" fill="black"/>
</svg>
