<svg width="17" height="15" viewBox="0 0 17 15" fill="none" xmlns="http://www.w3.org/2000/svg">
<path d="M0.633789 4.07178C0.633789 3.93994 0.638672 3.73242 0.648438 3.44922C0.663086 3.16113 0.685059 2.85596 0.714355 2.53369C0.748535 2.21143 0.797363 1.93066 0.86084 1.69141C0.934082 1.38867 1.0708 1.18115 1.271 1.06885C1.47119 0.95166 1.68604 0.919922 1.91553 0.973633C2.14502 1.02734 2.34277 1.15186 2.50879 1.34717C2.89941 1.78662 3.3291 2.10156 3.79785 2.29199C4.2666 2.47754 4.7793 2.57031 5.33594 2.57031C6 2.57031 6.63721 2.51416 7.24756 2.40186C7.86279 2.28955 8.47314 2.2334 9.07861 2.2334C9.95752 2.2334 10.7681 2.36768 11.5103 2.63623C12.2524 2.8999 12.8945 3.27588 13.4365 3.76416C13.9834 4.24756 14.4082 4.81885 14.7109 5.47803C15.0137 6.13721 15.165 6.85986 15.165 7.646C15.165 8.46143 15.0137 9.21094 14.7109 9.89453C14.4082 10.5732 13.9834 11.1616 13.4365 11.6597C12.8945 12.1577 12.25 12.5435 11.5029 12.8169C10.7607 13.0903 9.94287 13.2271 9.04932 13.2271C7.7749 13.2271 6.62012 13.0122 5.58496 12.5825C4.55469 12.1479 3.66846 11.5278 2.92627 10.7222C2.18896 9.9165 1.62256 8.95215 1.22705 7.8291C0.831543 6.70605 0.633789 5.45361 0.633789 4.07178ZM1.95215 4.07178C1.95215 5.27295 2.11572 6.35693 2.44287 7.32373C2.7749 8.28564 3.25098 9.1084 3.87109 9.79199C4.49121 10.4756 5.23584 11.0005 6.10498 11.3667C6.979 11.7329 7.96045 11.916 9.04932 11.916C9.99658 11.916 10.8291 11.7354 11.5469 11.374C12.2695 11.0127 12.8335 10.5122 13.2388 9.87256C13.644 9.22803 13.8467 8.48584 13.8467 7.646C13.8467 6.84521 13.644 6.13721 13.2388 5.52197C12.8335 4.90186 12.272 4.41846 11.5542 4.07178C10.8364 3.72021 10.0112 3.54443 9.07861 3.54443C8.83447 3.54443 8.58301 3.55908 8.32422 3.58838C8.07031 3.61768 7.79932 3.65186 7.51123 3.69092C7.18408 3.73486 6.83984 3.77881 6.47852 3.82275C6.11719 3.86182 5.73633 3.88135 5.33594 3.88135C4.76953 3.88135 4.20068 3.78857 3.62939 3.60303C3.05811 3.41748 2.56982 3.15137 2.16455 2.80469C2.07178 2.73633 2.02051 2.7583 2.01074 2.87061C1.98145 3.03662 1.96436 3.22705 1.95947 3.44189C1.95459 3.65674 1.95215 3.8667 1.95215 4.07178ZM4.93311 5.85156C4.88916 5.71973 4.89893 5.6123 4.9624 5.5293C5.02588 5.44141 5.10889 5.39502 5.21143 5.39014C5.31396 5.38525 5.41162 5.44141 5.50439 5.55859C5.76807 5.89551 6.07324 6.16895 6.41992 6.37891C6.77148 6.58887 7.15967 6.75488 7.58447 6.87695C8.01416 6.99902 8.47559 7.09912 8.96875 7.17725C10.3506 7.39209 11.481 7.69727 12.3599 8.09277C13.2437 8.48828 13.9321 9.02051 14.4253 9.68945C14.645 9.9873 14.8672 10.312 15.0918 10.6636C15.3213 11.0103 15.5312 11.3594 15.7217 11.7109C15.917 12.0576 16.0732 12.3921 16.1904 12.7144C16.3076 13.0317 16.3662 13.3149 16.3662 13.564C16.3662 13.8911 16.2612 14.1719 16.0513 14.4062C15.8413 14.6455 15.5898 14.7651 15.2969 14.7651C15.1455 14.7651 15.0063 14.7236 14.8794 14.6406C14.7573 14.5576 14.6646 14.4209 14.6011 14.2305C14.4497 13.7471 14.3154 13.2905 14.1982 12.8608C14.0811 12.4263 13.9443 12.0186 13.7881 11.6377C13.6318 11.2568 13.417 10.8979 13.1436 10.561C12.9043 10.2632 12.6479 10.0044 12.3745 9.78467C12.106 9.56006 11.7983 9.36475 11.4517 9.19873C11.105 9.02783 10.6948 8.86914 10.2212 8.72266C9.74756 8.57617 9.19092 8.42725 8.55127 8.27588C7.96045 8.13428 7.41846 7.96338 6.92529 7.76318C6.43213 7.55811 6.01221 7.30176 5.66553 6.99414C5.32373 6.68652 5.07959 6.30566 4.93311 5.85156Z" fill="black"/>
</svg>
