<svg width="15" height="15" viewBox="0 0 15 15" fill="none" xmlns="http://www.w3.org/2000/svg">
<path d="M1.36963 4.71631C0.95459 4.71631 0.629883 4.59912 0.395508 4.36475C0.161133 4.12549 0.0439453 3.79102 0.0439453 3.36133V1.75732C0.0439453 1.33252 0.161133 1.00049 0.395508 0.76123C0.629883 0.521973 0.95459 0.402344 1.36963 0.402344H3.03223C3.45215 0.402344 3.77686 0.521973 4.00635 0.76123C4.24072 1.00049 4.35791 1.33252 4.35791 1.75732V3.36133C4.35791 3.79102 4.24072 4.12549 4.00635 4.36475C3.77686 4.59912 3.45215 4.71631 3.03223 4.71631H1.36963ZM6.65771 4.71631C6.24268 4.71631 5.91797 4.59912 5.68359 4.36475C5.4541 4.12549 5.33936 3.79102 5.33936 3.36133V1.75732C5.33936 1.33252 5.4541 1.00049 5.68359 0.76123C5.91797 0.521973 6.24268 0.402344 6.65771 0.402344H8.32764C8.74268 0.402344 9.06494 0.521973 9.29443 0.76123C9.52881 1.00049 9.646 1.33252 9.646 1.75732V3.36133C9.646 3.79102 9.52881 4.12549 9.29443 4.36475C9.06494 4.59912 8.74268 4.71631 8.32764 4.71631H6.65771ZM6.8335 3.58838H8.15186C8.26904 3.58838 8.35938 3.55664 8.42285 3.49316C8.48633 3.42969 8.51807 3.33203 8.51807 3.2002V1.91846C8.51807 1.7915 8.48633 1.69629 8.42285 1.63281C8.35938 1.56934 8.26904 1.5376 8.15186 1.5376H6.8335C6.71143 1.5376 6.61865 1.56934 6.55518 1.63281C6.49658 1.69629 6.46729 1.7915 6.46729 1.91846V3.2002C6.46729 3.33203 6.49658 3.42969 6.55518 3.49316C6.61865 3.55664 6.71143 3.58838 6.8335 3.58838ZM11.9604 4.71631C11.5405 4.71631 11.2134 4.59912 10.979 4.36475C10.7495 4.12549 10.6348 3.79102 10.6348 3.36133V1.75732C10.6348 1.33252 10.7495 1.00049 10.979 0.76123C11.2134 0.521973 11.5405 0.402344 11.9604 0.402344H13.623C14.0381 0.402344 14.3628 0.521973 14.5972 0.76123C14.8315 1.00049 14.9487 1.33252 14.9487 1.75732V3.36133C14.9487 3.79102 14.8315 4.12549 14.5972 4.36475C14.3628 4.59912 14.0381 4.71631 13.623 4.71631H11.9604ZM12.1362 3.58838H13.4473C13.5645 3.58838 13.6548 3.55664 13.7183 3.49316C13.7817 3.42969 13.8135 3.33203 13.8135 3.2002V1.91846C13.8135 1.7915 13.7817 1.69629 13.7183 1.63281C13.6548 1.56934 13.5645 1.5376 13.4473 1.5376H12.1362C12.0142 1.5376 11.9214 1.56934 11.8579 1.63281C11.7944 1.69629 11.7627 1.7915 11.7627 1.91846V3.2002C11.7627 3.33203 11.7944 3.42969 11.8579 3.49316C11.9214 3.55664 12.0142 3.58838 12.1362 3.58838ZM1.36963 9.85791C0.95459 9.85791 0.629883 9.74072 0.395508 9.50635C0.161133 9.26709 0.0439453 8.93506 0.0439453 8.51025V6.89893C0.0439453 6.46924 0.161133 6.13721 0.395508 5.90283C0.629883 5.66357 0.95459 5.54395 1.36963 5.54395H3.03223C3.45215 5.54395 3.77686 5.66357 4.00635 5.90283C4.24072 6.13721 4.35791 6.46924 4.35791 6.89893V8.51025C4.35791 8.93506 4.24072 9.26709 4.00635 9.50635C3.77686 9.74072 3.45215 9.85791 3.03223 9.85791H1.36963ZM1.54541 8.72998H2.85645C2.97363 8.72998 3.06396 8.69824 3.12744 8.63477C3.1958 8.56641 3.22998 8.46875 3.22998 8.3418V7.06006C3.22998 6.93311 3.1958 6.83789 3.12744 6.77441C3.06396 6.70605 2.97363 6.67188 2.85645 6.67188H1.54541C1.42334 6.67188 1.33057 6.70605 1.26709 6.77441C1.2085 6.83789 1.1792 6.93311 1.1792 7.06006V8.3418C1.1792 8.46875 1.2085 8.56641 1.26709 8.63477C1.33057 8.69824 1.42334 8.72998 1.54541 8.72998ZM6.65771 9.85791C6.24268 9.85791 5.91797 9.74072 5.68359 9.50635C5.4541 9.26709 5.33936 8.93506 5.33936 8.51025V6.89893C5.33936 6.46924 5.4541 6.13721 5.68359 5.90283C5.91797 5.66357 6.24268 5.54395 6.65771 5.54395H8.32764C8.74268 5.54395 9.06494 5.66357 9.29443 5.90283C9.52881 6.13721 9.646 6.46924 9.646 6.89893V8.51025C9.646 8.93506 9.52881 9.26709 9.29443 9.50635C9.06494 9.74072 8.74268 9.85791 8.32764 9.85791H6.65771ZM6.8335 8.72998H8.15186C8.26904 8.72998 8.35938 8.69824 8.42285 8.63477C8.48633 8.56641 8.51807 8.46875 8.51807 8.3418V7.06006C8.51807 6.93311 8.48633 6.83789 8.42285 6.77441C8.35938 6.70605 8.26904 6.67188 8.15186 6.67188H6.8335C6.71143 6.67188 6.61865 6.70605 6.55518 6.77441C6.49658 6.83789 6.46729 6.93311 6.46729 7.06006V8.3418C6.46729 8.46875 6.49658 8.56641 6.55518 8.63477C6.61865 8.69824 6.71143 8.72998 6.8335 8.72998ZM11.9604 9.85791C11.5405 9.85791 11.2134 9.74072 10.979 9.50635C10.7495 9.26709 10.6348 8.93506 10.6348 8.51025V6.89893C10.6348 6.46924 10.7495 6.13721 10.979 5.90283C11.2134 5.66357 11.5405 5.54395 11.9604 5.54395H13.623C14.0381 5.54395 14.3628 5.66357 14.5972 5.90283C14.8315 6.13721 14.9487 6.46924 14.9487 6.89893V8.51025C14.9487 8.93506 14.8315 9.26709 14.5972 9.50635C14.3628 9.74072 14.0381 9.85791 13.623 9.85791H11.9604ZM12.1362 8.72998H13.4473C13.5645 8.72998 13.6548 8.69824 13.7183 8.63477C13.7817 8.56641 13.8135 8.46875 13.8135 8.3418V7.06006C13.8135 6.93311 13.7817 6.83789 13.7183 6.77441C13.6548 6.70605 13.5645 6.67188 13.4473 6.67188H12.1362C12.0142 6.67188 11.9214 6.70605 11.8579 6.77441C11.7944 6.83789 11.7627 6.93311 11.7627 7.06006V8.3418C11.7627 8.46875 11.7944 8.56641 11.8579 8.63477C11.9214 8.69824 12.0142 8.72998 12.1362 8.72998ZM1.36963 15.0068C0.95459 15.0068 0.629883 14.8872 0.395508 14.6479C0.161133 14.4136 0.0439453 14.0791 0.0439453 13.6445V12.0479C0.0439453 11.6133 0.161133 11.2788 0.395508 11.0444C0.629883 10.8052 0.95459 10.6855 1.36963 10.6855H3.03223C3.45215 10.6855 3.77686 10.8052 4.00635 11.0444C4.24072 11.2788 4.35791 11.6133 4.35791 12.0479V13.6445C4.35791 14.0791 4.24072 14.4136 4.00635 14.6479C3.77686 14.8872 3.45215 15.0068 3.03223 15.0068H1.36963ZM1.54541 13.8716H2.85645C2.97363 13.8716 3.06396 13.8374 3.12744 13.769C3.1958 13.7056 3.22998 13.6104 3.22998 13.4834V12.209C3.22998 12.0771 3.1958 11.9795 3.12744 11.916C3.06396 11.8477 2.97363 11.8135 2.85645 11.8135H1.54541C1.42334 11.8135 1.33057 11.8477 1.26709 11.916C1.2085 11.9795 1.1792 12.0771 1.1792 12.209V13.4834C1.1792 13.6104 1.2085 13.7056 1.26709 13.769C1.33057 13.8374 1.42334 13.8716 1.54541 13.8716ZM6.65771 15.0068C6.24268 15.0068 5.91797 14.8872 5.68359 14.6479C5.4541 14.4136 5.33936 14.0791 5.33936 13.6445V12.0479C5.33936 11.6133 5.4541 11.2788 5.68359 11.0444C5.91797 10.8052 6.24268 10.6855 6.65771 10.6855H8.32764C8.74268 10.6855 9.06494 10.8052 9.29443 11.0444C9.52881 11.2788 9.646 11.6133 9.646 12.0479V13.6445C9.646 14.0791 9.52881 14.4136 9.29443 14.6479C9.06494 14.8872 8.74268 15.0068 8.32764 15.0068H6.65771ZM6.8335 13.8716H8.15186C8.26904 13.8716 8.35938 13.8374 8.42285 13.769C8.48633 13.7056 8.51807 13.6104 8.51807 13.4834V12.209C8.51807 12.0771 8.48633 11.9795 8.42285 11.916C8.35938 11.8477 8.26904 11.8135 8.15186 11.8135H6.8335C6.71143 11.8135 6.61865 11.8477 6.55518 11.916C6.49658 11.9795 6.46729 12.0771 6.46729 12.209V13.4834C6.46729 13.6104 6.49658 13.7056 6.55518 13.769C6.61865 13.8374 6.71143 13.8716 6.8335 13.8716ZM11.9604 15.0068C11.5405 15.0068 11.2134 14.8872 10.979 14.6479C10.7495 14.4136 10.6348 14.0791 10.6348 13.6445V12.0479C10.6348 11.6133 10.7495 11.2788 10.979 11.0444C11.2134 10.8052 11.5405 10.6855 11.9604 10.6855H13.623C14.0381 10.6855 14.3628 10.8052 14.5972 11.0444C14.8315 11.2788 14.9487 11.6133 14.9487 12.0479V13.6445C14.9487 14.0791 14.8315 14.4136 14.5972 14.6479C14.3628 14.8872 14.0381 15.0068 13.623 15.0068H11.9604ZM12.1362 13.8716H13.4473C13.5645 13.8716 13.6548 13.8374 13.7183 13.769C13.7817 13.7056 13.8135 13.6104 13.8135 13.4834V12.209C13.8135 12.0771 13.7817 11.9795 13.7183 11.916C13.6548 11.8477 13.5645 11.8135 13.4473 11.8135H12.1362C12.0142 11.8135 11.9214 11.8477 11.8579 11.916C11.7944 11.9795 11.7627 12.0771 11.7627 12.209V13.4834C11.7627 13.6104 11.7944 13.7056 11.8579 13.769C11.9214 13.8374 12.0142 13.8716 12.1362 13.8716Z" fill="white"/>
</svg>
